<svg width="128" height="128" viewBox="0 0 128 128" fill="none" xmlns="http://www.w3.org/2000/svg">
<g clip-path="url(#clip0_3813_5471)">
<mask id="mask0_3813_5471" style="mask-type:alpha" maskUnits="userSpaceOnUse" x="0" y="0" width="128" height="128">
<path d="M128 64C128 99.3467 99.3467 128 64 128C28.6538 128 0 99.3467 0 64C0 28.6538 28.6538 0 64 0C99.3467 0 128 28.6538 128 64Z" fill="#C4C4C4"/>
</mask>
<g mask="url(#mask0_3813_5471)">
<path d="M128 0H0V128H128V0Z" fill="#EFF1F3"/>
<path d="M46.1333 75.9111C36.2667 73.0667 27.2889 69.0667 16.1778 66.3111C10.7556 64.9778 5.33333 64.2667 0 64V128.444H128V98.0444C100.356 91.5556 73.3333 83.8222 46.1333 75.9111Z" fill="#CCD3DC"/>
<path d="M51.6454 99.7333C35.3787 105.867 17.5121 112 0.0898438 114.578V128.444H128.09V76.0889C118.668 76.5333 108.801 79.2889 99.8231 81.5111C83.0232 85.6889 67.6454 93.6889 51.6454 99.7333Z" fill="url(#paint0_linear_3813_5471)"/>
<path d="M109.245 116.178C95.912 113.066 83.1121 108.444 70.2232 103.911C58.6676 99.9109 46.7565 96.8887 34.6676 95.3775C23.1121 93.9553 11.6454 94.7553 0.0898438 95.022V128.533H128.09V120C121.779 118.578 115.468 117.689 109.245 116.178Z" fill="url(#paint1_linear_3813_5471)"/>
<g filter="url(#filter0_d_3813_5471)">
<path d="M80.8352 32.0107H46.4707V96.2266H80.8352V32.0107Z" fill="white"/>
<path d="M43.5547 63.98C43.5547 53.2971 43.5547 42.5747 43.5547 31.8919C43.5547 27.2626 45.9192 24.8887 50.4512 24.8887C59.1606 24.8887 67.87 24.8887 76.5793 24.8887C81.1113 24.8887 83.5547 27.3022 83.5547 31.8523C83.5547 53.2971 83.5547 74.7816 83.5547 96.2265C83.5547 100.658 81.1113 103.111 76.6975 103.111C67.9093 103.111 59.1606 103.111 50.3725 103.111C45.9192 103.111 43.5547 100.737 43.5547 96.2265C43.5547 85.504 43.5547 74.742 43.5547 63.98ZM80.8749 96.0282C80.8749 74.6233 80.8749 53.3763 80.8749 32.0502C69.2493 32.0502 57.7419 32.0502 46.2739 32.0502C46.2739 53.4554 46.2739 74.7025 46.2739 96.0282C57.8207 96.0282 69.2493 96.0282 80.8749 96.0282Z" fill="#989FB0"/>
<rect x="51" y="88" width="12" height="3" rx="1.5" fill="#D1D3D4"/>
<rect x="65" y="88" width="12" height="3" rx="1.5" fill="#989FB0"/>
</g>
<path d="M53 48C53 47.4477 53.4477 47 54 47H57C57.5523 47 58 47.4477 58 48V63H53V48Z" fill="#E3E6E9"/>
<path d="M61 45C61 44.4477 61.4477 44 62 44H65C65.5523 44 66 44.4477 66 45V63H61V45Z" fill="#D1D3D4"/>
<path d="M69 41C69 40.4477 69.4477 40 70 40H73C73.5523 40 74 40.4477 74 41V63H69V41Z" fill="#989FB0"/>
<rect x="50" y="63" width="27" height="2" rx="1" fill="#989FB0"/>
<path d="M75.4758 70H50.4946C50.2214 70 50 70.2214 50 70.4946C50 70.7676 50.2214 70.9891 50.4946 70.9891H75.4758C75.749 70.9891 75.9704 70.7676 75.9704 70.4946C75.9704 70.2214 75.749 70 75.4758 70Z" fill="#D1D3D4"/>
<path d="M75.4758 74.0073H50.4946C50.2214 74.0073 50 74.2288 50 74.5019C50 74.7751 50.2214 74.9965 50.4946 74.9965H75.4758C75.749 74.9965 75.9704 74.7751 75.9704 74.5019C75.9704 74.2288 75.749 74.0073 75.4758 74.0073Z" fill="#D1D3D4"/>
<path d="M66.6763 78H50.3237C50.1449 78 50 78.2238 50 78.5C50 78.7761 50.1449 79 50.3237 79H66.6763C66.8551 79 67 78.7761 67 78.5C67 78.2238 66.8551 78 66.6763 78Z" fill="#D1D3D4"/>
<path d="M89.4272 75.1326L89.4237 75.1308L72.8372 66.7666C72.8366 66.7662 72.836 66.7659 72.8354 66.7656C71.6567 66.1604 70.1435 66.3322 69.1414 67.2725C68.1487 68.2039 67.8258 69.6548 68.1211 70.9301L68.1262 70.9523L68.1334 70.974L74.0212 88.8092C74.7775 91.298 78.03 91.8926 79.7787 89.9395L79.7788 89.9396L79.7864 89.9307L81.9434 87.4053L86.5736 92.794C87.798 94.2874 89.8872 94.2964 91.2946 93.1167C92.7671 91.8826 92.7545 89.7706 91.5898 88.3446L91.5899 88.3445L91.5818 88.335L86.9438 82.9373L89.7773 81.1381L89.7926 81.1283L89.8072 81.1175C91.8202 79.6243 91.7907 76.3482 89.4272 75.1326Z" fill="#ED1C24" stroke="white"/>
</g>
</g>
<defs>
<filter id="filter0_d_3813_5471" x="13.5547" y="-1.11133" width="100" height="138.222" filterUnits="userSpaceOnUse" color-interpolation-filters="sRGB">
<feFlood flood-opacity="0" result="BackgroundImageFix"/>
<feColorMatrix in="SourceAlpha" type="matrix" values="0 0 0 0 0 0 0 0 0 0 0 0 0 0 0 0 0 0 127 0" result="hardAlpha"/>
<feOffset dy="4"/>
<feGaussianBlur stdDeviation="15"/>
<feColorMatrix type="matrix" values="0 0 0 0 0 0 0 0 0 0 0 0 0 0 0 0 0 0 0.1 0"/>
<feBlend mode="normal" in2="BackgroundImageFix" result="effect1_dropShadow_3813_5471"/>
<feBlend mode="normal" in="SourceGraphic" in2="effect1_dropShadow_3813_5471" result="shape"/>
</filter>
<linearGradient id="paint0_linear_3813_5471" x1="91.696" y1="149.13" x2="64.8573" y2="103.711" gradientUnits="userSpaceOnUse">
<stop stop-color="#EFF1F3"/>
<stop offset="0.6154" stop-color="#EDEFF2"/>
<stop offset="0.8368" stop-color="#E6EAEE"/>
<stop offset="0.9943" stop-color="#DBE0E6"/>
<stop offset="1" stop-color="#DAE0E6"/>
</linearGradient>
<linearGradient id="paint1_linear_3813_5471" x1="64.0107" y1="170.894" x2="64.0107" y2="109.841" gradientUnits="userSpaceOnUse">
<stop stop-color="#EFF1F3"/>
<stop offset="0.6154" stop-color="#EDEFF2"/>
<stop offset="0.8368" stop-color="#E6EAEE"/>
<stop offset="0.9943" stop-color="#DBE0E6"/>
<stop offset="1" stop-color="#DAE0E6"/>
</linearGradient>
<clipPath id="clip0_3813_5471">
<rect width="128" height="128" fill="white"/>
</clipPath>
</defs>
</svg>
